HIERARCHY
ROOT Hips
{
  OFFSET 0 0 0
  CHANNELS 6 Xposition Yposition Zposition Zrotation Yrotation Xrotation
  JOINT LeftThigh
  {
    OFFSET 8.409438 0 -5.917753
    CHANNELS 3 Zrotation Yrotation Xrotation
    JOINT LeftLeg
    {
      OFFSET 0 0 -42.358652
      CHANNELS 3 Zrotation Yrotation Xrotation
      JOINT LeftFoot
      {
        OFFSET 0 0 -39.357303
        CHANNELS 3 Zrotation Yrotation Xrotation
      }
    }
  }
  JOINT RightThigh
  {
    OFFSET -8.409438 0 -5.917753
    CHANNELS 3 Zrotation Yrotation Xrotation
    JOINT RightLeg
    {
      OFFSET 0 0 -42.358652
      CHANNELS 3 Zrotation Yrotation Xrotation
      JOINT RightFoot
      {
        OFFSET 0 0 -39.357303
        CHANNELS 3 Zrotation Yrotation Xrotation
      }
    }
  }
  JOINT SpineLow
  {
    OFFSET 0 0 4.719101
    CHANNELS 3 Zrotation Yrotation Xrotation
    JOINT SpineMid
    {
      OFFSET 0 0 12.899191
      CHANNELS 3 Zrotation Yrotation Xrotation
      JOINT Chest
      {
        OFFSET 0 0 12.899191
        CHANNELS 3 Zrotation Yrotation Xrotation
        JOINT LeftShoulder
        {
          OFFSET 7.550562 1.41573 9.438202
          CHANNELS 3 Zrotation Yrotation Xrotation
          JOINT LeftArm
          {
            OFFSET 9.155056 0 4.247191
            CHANNELS 3 Zrotation Yrotation Xrotation
            JOINT LeftForearm
            {
              OFFSET 0 0 25.771955
              CHANNELS 3 Zrotation Yrotation Xrotation
              JOINT LeftHand
              {
                OFFSET 0 0 25.197169
                CHANNELS 3 Zrotation Yrotation Xrotation
              }
            }
          }
        }
        JOINT RightShoulder
        {
          OFFSET -7.550562 1.41573 9.438202
          CHANNELS 3 Zrotation Yrotation Xrotation
          JOINT RightArm
          {
            OFFSET -9.155056 0 4.247191
            CHANNELS 3 Zrotation Yrotation Xrotation
            JOINT RightForearm
            {
              OFFSET 0 0 -25.771955
              CHANNELS 3 Zrotation Yrotation Xrotation
              JOINT RightHand
              {
                OFFSET 0 0 -25.197169
                CHANNELS 3 Zrotation Yrotation Xrotation
              }
            }
          }
        }
        JOINT Neck
        {
          OFFSET 0 0 15.101124
          CHANNELS 3 Zrotation Yrotation Xrotation
          JOINT Head
          {
            OFFSET 0 0 11.325843
            CHANNELS 3 Zrotation Yrotation Xrotation
            End Site
            {
              OFFSET 0 0 14.157303
            }
          }
        }
      }
    }
  }
}
MOTION
Frames: 10
Frame Time: 0.01
0.0  101.685394  0.0  -1.469965  -3.813358  -103.954706  25.027505  -24.428909  4.932823  -5.926727  6.189084  28.660814  7.405122  4.329577  4.783395  -14.407301  11.000254  -7.227742  11.922221  -0.408617  28.689786  7.428262  5.362087  -0.405776  0.811104  -0.235964  2.807461  2.186356  -0.737964  7.665297  2.186356  -0.737964  7.665297  -12.732677  18.378354  -0.08  117.816879  76.312846  -177.602246  -32.228984  26.129794  97.03086  62.168147  17.301244  -15.431664  21.24852  -11.218789  12.673428  116.373522  67.452039  29.646084  -29.290667  -9.308096  -102.280616  75.299751  -2.268484  12.725935  1.514175  -2.136999  -4.213002  1.120825  -1.613288  -3.154111  
0.0  101.685394  0.0  -1.191723  -6.808183  -103.739211  25.597654  -23.58571  5.799371  -4.986127  5.284519  27.820374  7.871074  4.19854  4.810718  -13.031198  11.129261  -6.960646  11.855493  -0.669051  27.084595  7.881266  4.809496  -0.428224  1.11055  -0.255909  2.729294  3.002421  -0.823509  7.44704  3.00242  -0.823509  7.44704  -13.562443  16.94329  -0.246593  113.906186  77.623502  176.666308  -31.059491  26.834962  98.724351  62.840656  20.727849  -14.72007  20.117678  -11.764896  11.985376  112.195955  64.537077  25.979847  -28.219328  -5.339235  -103.577269  74.918023  -0.816928  11.454774  1.637871  -1.926672  -3.918143  1.21599  -1.455587  -2.93319  
0.0  101.685394  0.0  -0.984453  -9.491364  -103.517164  25.907345  -22.585594  6.625106  -3.803214  4.225848  26.873928  8.180273  3.998503  4.804697  -12.08129  10.943213  -6.787127  11.938385  -0.628048  25.448999  8.415581  4.18848  -0.36222  1.331789  -0.264833  2.635354  3.606696  -0.86763  7.186757  3.606696  -0.86763  7.186756  -14.179967  15.302684  -0.569269  105.540565  79.176363  166.71561  -30.176368  28.606113  100.202213  65.193485  24.811354  -13.166689  18.838469  -12.542702  11.520158  107.866835  61.127922  22.65625  -26.646037  -3.526786  -104.328733  77.037438  1.489858  10.325101  1.738671  -1.796482  -3.581885  1.293417  -1.357619  -2.681107  
0.0  101.685394  0.0  -0.89397  -11.768513  -103.32884  25.916059  -21.666553  7.463067  -2.29276  3.1522  25.783332  8.226015  3.735427  4.662382  -11.238911  10.951453  -6.333857  11.784846  -0.730027  23.562252  8.856164  3.687529  -0.313737  1.464977  -0.304499  2.51666  3.967985  -0.983231  6.858153  3.967985  -0.983231  6.858153  -14.794955  13.68658  -0.938269  91.374111  80.672744  151.002894  -29.566876  29.877661  101.318192  68.256524  28.497669  -11.491527  17.368079  -13.23273  11.428686  103.768702  57.208055  20.142915  -24.973375  -1.38579  -105.008056  79.131995  4.43037  9.7724  1.672986  -1.736143  -3.068805  1.24596  -1.310558  -2.296694  
0.0  101.685394  0.0  -0.962953  -13.631374  -103.195648  25.929274  -21.105335  8.40695  -0.673102  2.232535  24.426216  8.108962  3.472599  4.497734  -10.630147  10.815886  -5.545297  11.554453  -0.645074  21.513681  9.399837  3.259349  -0.271779  1.457619  -0.418197  2.396653  3.938791  -1.28566  6.523824  3.938791  -1.28566  6.523824  -15.142778  12.182575  -1.534163  70.326792  81.142849  128.487778  -29.571401  29.67932  102.407367  71.224154  31.418095  -11.305339  16.003419  -13.481887  11.894355  100.727856  53.147153  19.10282  -24.008828  1.392882  -105.76369  80.005348  7.89234  9.66592  1.730117  -1.552108  -2.34027  1.291586  -1.170737  -1.750717  
0.0  101.685394  0.0  -1.164503  -14.987824  -103.091223  25.989387  -20.864146  9.392267  0.813577  1.516271  22.890068  7.87532  3.248159  4.294001  -9.79518  10.611286  -4.467599  10.837771  -0.410043  19.417596  9.983933  2.870743  -0.213483  1.25672  -0.554844  2.284712  3.379832  -1.633235  6.215416  3.379832  -1.633235  6.215416  -14.970245  10.768656  -2.219578  48.199628  79.269148  105.088252  -30.941355  27.479581  103.285885  73.530198  33.470653  -13.104747  14.935079  -13.374168  12.902024  98.802726  49.088862  19.269045  -23.804727  4.066427  -106.32042  80.22363  12.118637  9.906511  2.124717  -1.320342  -1.52194  1.590191  -0.995569  -1.13683  
0.0  101.685394  0.0  -1.494227  -15.882585  -102.859832  26.124571  -20.953871  10.156067  2.021569  1.120918  21.334959  8.485304  3.018289  4.6187  -8.578406  10.252811  -3.392179  9.687059  -0.119585  17.473939  10.379485  2.501482  -0.178451  0.925307  -0.684073  2.114514  2.467876  -1.948762  5.754193  2.467876  -1.948762  5.754193  -14.768186  9.152738  -2.782136  36.722743  76.353648  92.324956  -32.991699  22.599775  103.334049  75.673987  34.67707  -15.46873  13.965732  -13.121468  14.052005  97.23557  44.463508  19.980834  -24.085038  5.818357  -106.802482  80.011969  16.73088  10.221818  2.70111  -1.148048  -0.558025  2.024718  -0.863523  -0.41344  
0.0  101.685394  0.0  -1.934415  -16.37023  -102.459576  26.422043  -21.383236  10.580128  2.73354  1.080994  19.881999  8.181224  2.945069  4.48079  -7.274151  9.700756  -2.478  8.534034  0.167274  15.776706  10.551713  2.200707  -0.1929  0.504232  -0.752659  1.947292  1.317056  -2.096276  5.308403  1.317056  -2.096276  5.308404  -14.094259  7.178904  -3.299275  27.522645  73.441805  81.317296  -34.842764  15.937916  102.884454  78.959352  34.932498  -17.175391  13.098076  -13.292598  14.763972  95.959174  39.47451  21.539452  -24.822211  5.903118  -107.199461  79.116342  20.780867  10.228863  3.405477  -1.146614  0.219762  2.554435  -0.858767  0.171212  
0.0  101.685394  0.0  -2.376866  -16.611609  -101.703683  27.175606  -21.941466  10.366542  2.844441  1.395857  18.630803  7.894594  2.819999  4.371348  -5.834018  9.03373  -1.989992  7.464987  0.445804  14.319895  10.309242  1.925433  -0.261877  0.094898  -0.696938  1.895784  0.204643  -1.911099  5.180522  0.204643  -1.911099  5.180522  -13.717987  3.801458  -4.314976  20.213562  70.384074  71.236895  -36.761341  7.23455  101.944088  84.353304  34.158092  -17.979508  11.95553  -13.894327  15.109851  94.525844  35.506378  23.3725  -27.726838  3.724419  -106.284483  77.140909  23.929319  7.273008  4.061174  -1.464717  0.209757  3.046218  -1.097202  0.167053  
0.0  101.685394  0.0  -2.665655  -16.830292  -100.622889  28.556143  -22.343164  9.50256  2.397257  1.839674  17.690571  7.711826  2.754696  4.336057  -4.016946  8.445448  -1.971508  6.405327  0.673876  13.121942  9.872774  1.676611  -0.313667  -0.223888  -0.733956  1.690554  -0.663117  -1.989397  4.629001  -0.663117  -1.989397  4.629001  -13.458374  0.803123  -4.307347  15.231439  67.56989  63.356833  -38.647501  -4.398233  100.213206  91.433749  32.64672  -18.457704  10.773888  -14.410668  15.262771  92.086866  30.733056  26.227791  -28.745822  4.485502  -108.274709  74.223153  21.824544  9.954882  4.362471  -1.420659  0.457134  3.272751  -1.062296  0.352997  
